<svg xmlns="http://www.w3.org/2000/svg" version="1.1" xmlns:xlink="http://www.w3.org/1999/xlink" xmlns:svgjs="http://svgjs.dev/svgjs" width="1000" height="623" viewBox="0 0 1000 623"><g transform="matrix(1,0,0,1,-0.6060606060606233,0.2522267206477409)"><svg viewBox="0 0 396 247" data-background-color="#ffffff" preserveAspectRatio="xMidYMid meet" height="623" width="1000" xmlns="http://www.w3.org/2000/svg" xmlns:xlink="http://www.w3.org/1999/xlink"><g id="tight-bounds" transform="matrix(1,0,0,1,0.2400000000000091,-0.09999999999999432)"><svg viewBox="0 0 395.52 247.2" height="247.2" width="395.52"><g><svg></svg></g><g><svg viewBox="0 0 395.52 247.2" height="247.2" width="395.52"><g transform="matrix(1,0,0,1,75.54432,101.33693315326053)"><svg viewBox="0 0 244.43135999999998 44.52613369347893" height="44.52613369347893" width="244.43135999999998"><g><svg viewBox="0 0 244.43135999999998 44.52613369347893" height="44.52613369347893" width="244.43135999999998"><g><svg viewBox="0 0 354.22209853116635 64.52584691417411" height="44.52613369347893" width="244.43135999999998"><g transform="matrix(1,0,0,1,109.79073853116631,8.917826889006697)"><svg viewBox="0 0 244.43136 46.690193136160715" height="46.690193136160715" width="244.43136"><g id="textblocktransform"><svg viewBox="0 0 244.43136 46.690193136160715" height="46.690193136160715" width="244.43136" id="textblock"><g><svg viewBox="0 0 244.43136 46.690193136160715" height="46.690193136160715" width="244.43136"><g transform="matrix(1,0,0,1,0,0)"><svg width="244.43136" viewBox="0.49000000953674316 -37.7400016784668 211.20999145507812 40.3466682434082" height="46.690193136160715" data-palette-color="#001f3f"><path d="M17.87-5.62L17.87-5.62Q17.77-5.32 17.77-5.08L17.77-5.08Q17.77-4.79 17.85-4.49 17.92-4.2 17.92-3.91L17.92-3.91Q17.82-3.03 17.77-2.83L17.77-2.83Q17.48-2.59 16.58-2.27 15.67-1.95 14.43-1.64 13.18-1.32 11.74-1 10.3-0.68 8.98-0.39 7.67-0.1 6.57 0.12 5.47 0.34 4.93 0.44L4.93 0.44Q4.69 0.49 4.47 0.56 4.25 0.63 4 0.73L4 0.73Q3.76 0.78 3.52 0.76 3.27 0.73 3.03 0.83L3.03 0.83Q2.88 0.83 2.76 0.68 2.64 0.54 2.54 0.44L2.54 0.44Q2.54 0.15 2.44 0 2.34-0.15 2.22-0.24 2.1-0.34 2-0.46 1.9-0.59 1.9-0.88L1.9-0.88Q1.81-1.27 1.64-1.49 1.46-1.71 1.46-1.9L1.46-1.9Q1.27-2.54 1.27-3.03L1.27-3.03Q1.27-3.27 1.32-3.42 1.37-3.56 1.46-3.71L1.46-3.71Q1.76-3.81 1.9-3.96 2.05-4.1 2.29-4.2L2.29-4.2Q2.59-4.35 3.13-4.47 3.66-4.59 4.3-4.74 4.93-4.88 5.52-5.03 6.1-5.18 6.49-5.32L6.49-5.32Q6.64-5.37 6.79-5.37 6.93-5.37 7.03-5.47L7.03-5.47Q6.93-6.25 6.91-7.03 6.88-7.81 6.79-8.54L6.79-8.54Q6.79-8.89 6.74-9.23 6.69-9.57 6.69-9.86L6.69-9.86 6.74-10.89Q6.74-12.74 6.59-14.6 6.45-16.46 6.45-18.31L6.45-18.31 6.45-19.97Q6.45-20.36 6.42-20.7 6.4-21.04 6.4-21.44L6.4-21.44Q6.4-22.36 6.42-23.22 6.45-24.07 6.45-25L6.45-25 6.45-29.49Q5.37-29.74 4.44-29.47 3.52-29.2 2.54-29.1L2.54-29.1Q2.2-29.44 2.15-29.83L2.15-29.83Q1.76-30.37 1.61-30.52 1.46-30.66 1.27-31.35L1.27-31.35Q0.93-32.03 0.71-32.2 0.49-32.37 0.49-32.76L0.49-32.76Q0.49-33.01 0.61-33.11 0.73-33.2 0.83-33.45L0.83-33.45Q1.27-33.64 1.34-33.72 1.42-33.79 1.51-33.84L1.51-33.84Q2-34.18 2.64-34.33 3.27-34.47 3.86-34.67L3.86-34.67Q4.35-34.81 4.79-35.01 5.22-35.21 5.76-35.35L5.76-35.35Q6.4-35.55 7.03-35.74 7.67-35.94 8.25-36.08L8.25-36.08Q8.64-36.18 9.01-36.16 9.38-36.13 9.77-36.38L9.77-36.38Q10.4-36.28 11.11-36.4 11.82-36.52 12.65-36.72 13.48-36.91 14.26-37.06 15.04-37.21 15.43-37.3L15.43-37.3Q15.67-37.21 15.77-37.06 15.87-36.91 16.06-36.87L16.06-36.87Q16.11-36.72 16.16-36.5 16.21-36.28 16.36-36.18L16.36-36.18Q16.36-35.64 16.6-35.4L16.6-35.4Q16.55-34.91 16.77-34.3 16.99-33.69 16.99-33.15L16.99-33.15Q16.75-32.42 16.19-32.23 15.63-32.03 14.97-31.88 14.31-31.74 13.67-31.62 13.04-31.49 12.65-31.35L12.65-31.35Q12.65-30.66 12.67-29.93 12.7-29.2 12.7-28.47L12.7-28.47Q12.7-27.78 12.67-27.1 12.65-26.42 12.65-25.73L12.65-25.73Q12.65-24.71 12.62-23.63 12.6-22.56 12.6-21.48L12.6-21.48Q12.6-19.97 12.65-18.46 12.7-16.94 12.79-15.43L12.79-15.43Q12.84-15.19 12.84-14.7L12.84-14.7Q12.84-12.74 12.92-10.86 12.99-8.98 13.18-6.98L13.18-6.98Q13.82-6.93 14.16-7.18L14.16-7.18Q14.4-7.18 14.62-7.28 14.84-7.37 15.04-7.47L15.04-7.47Q15.33-7.52 15.84-7.64 16.36-7.76 16.5-7.76L16.5-7.76Q16.94-7.71 17.04-7.76L17.04-7.76Q17.19-7.47 17.48-7.32L17.48-7.32Q17.58-6.88 17.65-6.47 17.72-6.05 17.87-5.62ZM38.62-36.43L38.62-36.43Q39.4-36.52 39.82-36.3 40.23-36.08 40.67-36.04L40.67-36.04Q40.92-35.99 41.18-36.01 41.45-36.04 41.75-36.04L41.75-36.04Q42.38-36.04 42.75-35.89 43.11-35.74 43.5-35.25L43.5-35.25Q43.6-35.16 43.77-34.99 43.94-34.81 43.94-34.67L43.94-34.67Q43.94-34.28 43.75-33.98 43.55-33.69 43.55-33.15L43.55-33.15Q43.55-32.32 43.75-31.52 43.94-30.71 43.99-29.88L43.99-29.88Q44.24-26.86 44.26-23.8 44.28-20.75 44.28-17.77L44.28-17.77Q44.28-17.38 44.26-17.07 44.24-16.75 44.04-16.5L44.04-16.5 44.04-15.87Q43.99-14.6 44.09-13.31 44.19-12.01 44.19-10.74L44.19-10.74Q44.19-9.62 44.06-8.5 43.94-7.37 43.94-6.2L43.94-6.2Q43.94-5.13 44.09-4.1 44.24-3.08 44.24-2L44.24-2Q43.99-1.56 43.94-1.32 43.89-1.07 43.75-0.88L43.75-0.88Q43.6-0.78 43.43-0.83 43.26-0.88 43.16-0.73L43.16-0.73Q42.92-0.44 42.82-0.05 42.72 0.34 42.33 0.59L42.33 0.59Q42.23 1.27 41.82 1.64 41.4 2 41.21 2.59L41.21 2.59Q40.62 2.64 40.4 2.54 40.18 2.44 39.94 2.34L39.94 2.34Q39.89 1.51 39.96 1.15 40.04 0.78 40.04 0.39L40.04 0.39Q40.04-0.1 39.79-0.34 39.55-0.59 39.45-0.98L39.45-0.98Q38.91-1.32 38.72-1.44 38.52-1.56 38.38-1.76L38.38-1.76Q38.08-2.15 37.89-2.59 37.69-3.03 37.45-3.42L37.45-3.42Q36.77-4.54 36.06-5.71 35.35-6.88 34.52-8.01L34.52-8.01Q34.37-8.25 34.18-8.45 33.98-8.64 33.84-8.89L33.84-8.89Q33.01-10.21 32.27-11.57 31.54-12.94 30.56-14.16L30.56-14.16Q30.17-14.65 29.98-15.26 29.78-15.87 29.39-16.31L29.39-16.31Q29.34-16.06 29.34-15.77 29.34-15.48 29.34-15.23L29.34-15.23Q29.34-13.57 29.42-11.94 29.49-10.3 29.49-8.64L29.49-8.64Q29.49-8.3 29.42-8.03 29.34-7.76 29.34-7.42L29.34-7.42Q29.34-6.93 29.39-6.49 29.44-6.05 29.44-5.62L29.44-5.62Q29.44-5.08 29.42-4.59 29.39-4.1 29.34-3.61L29.34-3.61Q29.25-2.98 29.1-2.42 28.95-1.86 28.95-1.27L28.95-1.27Q28.95-0.93 29.03-0.63 29.1-0.34 29.1-0.1L29.1-0.1Q28.76 0.44 28.24 0.44 27.73 0.44 27.39 0.83L27.39 0.83Q27.1 0.78 26.93 0.88 26.76 0.98 26.61 0.98L26.61 0.98Q26.41 0.98 26.29 0.93 26.17 0.88 26.02 0.88L26.02 0.88Q25.78 0.88 25.53 1.12 25.29 1.37 25.05 1.37L25.05 1.37Q24.9 1.37 24.53 1.17 24.17 0.98 23.75 0.71 23.34 0.44 23 0.17 22.65-0.1 22.65-0.24L22.65-0.24Q22.6-0.49 22.6-0.93L22.6-0.93Q22.6-1.51 22.68-2.08 22.75-2.64 22.85-3.22L22.85-3.22Q23-4.88 23-6.52 23-8.15 23-9.81L23-9.81Q23-10.5 23.02-11.18 23.04-11.87 23.04-12.55L23.04-12.55Q23.04-14.16 22.92-15.8 22.8-17.43 22.8-19.04L22.8-19.04Q22.8-20.17 22.9-21.26 23-22.36 23-23.44L23-23.44Q23-24.27 22.95-25.05 22.9-25.83 22.9-26.66L22.9-26.66Q22.85-27.2 22.9-27.81 22.95-28.42 22.95-28.96L22.95-28.96Q22.95-29.59 22.78-30.15 22.6-30.71 22.6-31.2L22.6-31.2Q22.6-31.49 22.73-31.76 22.85-32.03 22.85-32.32L22.85-32.32Q22.85-32.71 22.73-33.11 22.6-33.5 22.6-33.89L22.6-33.89Q22.6-34.28 22.7-34.62 22.8-34.96 22.8-35.35L22.8-35.35Q23.48-35.69 24.02-35.69L24.02-35.69Q24.56-35.69 24.8-35.3L24.8-35.3Q24.8-34.42 24.9-33.96 25-33.5 25.05-33.01L25.05-33.01Q25.05-32.71 25.02-32.32 25-31.93 25.05-31.57 25.1-31.2 25.27-30.96 25.44-30.71 25.88-30.71L25.88-30.71Q25.97-30.47 26.12-30.27 26.27-30.08 26.32-29.79L26.32-29.79Q26.61-29.98 26.66-30.32 26.71-30.66 26.66-30.96L26.66-30.96Q26.9-30.86 27.1-30.88 27.29-30.91 27.49-30.81L27.49-30.81Q27.59-30.13 27.73-29.61 27.88-29.1 27.83-28.42L27.83-28.42Q28.81-27.69 29.51-26.34 30.22-25 30.86-23.93L30.86-23.93Q31.2-23.39 31.66-22.92 32.13-22.46 32.37-21.83L32.37-21.83Q32.76-21.58 33.01-21.19 33.25-20.8 33.44-20.41L33.44-20.41Q34.42-18.7 35.59-17.09 36.77-15.48 38.03-13.92L38.03-13.92Q38.08-14.26 38.08-14.58 38.08-14.89 38.08-15.23L38.08-15.23 38.03-19.63Q38.03-20.02 38.01-20.36 37.99-20.7 37.94-21.09L37.94-21.09Q37.84-22.36 37.89-23.58 37.94-24.8 37.89-26.07L37.89-26.07Q37.79-27.39 37.77-28.76 37.74-30.13 37.64-31.49L37.64-31.49Q37.6-32.32 37.55-33.15 37.5-33.98 37.5-34.81L37.5-34.81Q37.5-35.84 37.69-36.67L37.69-36.67Q37.79-36.77 37.91-36.84 38.03-36.91 38.23-36.91L38.23-36.91Q38.52-36.91 38.62-36.43ZM70.16-34.91L70.16-34.91Q70.06-34.72 70.09-34.52 70.11-34.33 70.11-34.08L70.11-34.08Q70.01-33.5 70.11-33.5 70.21-33.5 70.21-33.4L70.21-33.4 69.87-32.91Q69.87-32.62 69.75-32.37 69.62-32.13 69.67-31.79L69.67-31.79Q69.53-31.54 69.4-31.3 69.28-31.05 69.04-30.81L69.04-30.81 68.4-30.81Q67.87-30.81 67.26-30.74 66.65-30.66 66.06-30.66L66.06-30.66Q65.96-30.66 65.82-30.69 65.67-30.71 65.52-30.71L65.52-30.71Q65.42-30.71 65.28-30.69 65.13-30.66 64.94-30.66L64.94-30.66Q64.2-30.66 63.5-30.74 62.79-30.81 62.01-30.81L62.01-30.81Q61.81-30.81 61.62-30.81 61.42-30.81 61.18-30.76L61.18-30.76Q61.13-29.93 61.1-29.08 61.08-28.22 61.08-27.34L61.08-27.34Q61.08-27.1 61.03-26.83 60.98-26.56 60.98-26.32L60.98-26.32Q60.93-25.68 60.91-25.1 60.88-24.51 60.88-23.88L60.88-23.88Q60.88-22.51 60.91-21.14 60.93-19.78 60.98-18.36L60.98-18.36Q61.03-17.63 61.08-16.94 61.13-16.26 61.13-15.53L61.13-15.53Q61.13-13.87 61.08-12.23 61.03-10.6 61.03-8.94L61.03-8.94Q61.03-8.4 60.98-7.93 60.93-7.47 60.93-6.93L60.93-6.93Q60.93-5.81 60.98-4.69 61.03-3.56 61.03-2.44L61.03-2.44Q61.03-1.9 61.01-1.37 60.98-0.83 60.98-0.29L60.98-0.29Q60.74 0.1 60.64 0.39 60.54 0.68 60.05 0.68L60.05 0.68Q59.71 0.59 59.74 0.46 59.76 0.34 59.66 0.24L59.66 0.24Q59.22 0.2 59 0.32 58.78 0.44 58.49 0.54L58.49 0.54Q58.34 0.49 58.17 0.49 58 0.49 57.86 0.49L57.86 0.49Q57.76 0.49 57.66 0.56 57.56 0.63 57.22 0.63L57.22 0.63Q56.93 0.68 56.88 0.54 56.83 0.39 56.59 0.39L56.59 0.39Q56.34 0.54 56.03 0.61 55.71 0.68 55.41 0.68L55.41 0.68Q55.12 0.49 55.15 0.32 55.17 0.15 55.07-0.05L55.07-0.05Q55.02-0.15 54.9-0.32 54.78-0.49 54.68-0.59L54.68-0.59Q54.78-1.27 54.83-1.81 54.88-2.34 54.88-2.98L54.88-2.98Q54.88-4.25 54.78-5.47 54.68-6.69 54.68-7.96L54.68-7.96Q54.68-8.35 54.78-8.79 54.88-9.23 54.88-9.72L54.88-9.72Q54.78-10.11 54.83-10.18 54.88-10.25 54.88-10.35L54.88-10.35Q54.88-10.64 54.85-10.94 54.83-11.23 54.83-11.52L54.83-11.52Q54.83-12.11 54.85-12.7 54.88-13.28 54.88-13.87L54.88-13.87Q54.88-14.11 54.85-14.38 54.83-14.65 54.83-14.89L54.83-14.89Q54.78-15.33 54.8-15.82 54.83-16.31 54.83-16.8L54.83-16.8Q54.83-19.14 54.76-21.44 54.68-23.73 54.68-26.07L54.68-26.07Q54.68-27.25 54.8-28.39 54.93-29.54 54.93-30.71L54.93-30.71Q54.93-30.86 54.83-31.1 54.73-31.35 54.63-31.45L54.63-31.45Q54.39-31.45 54.17-31.47 53.95-31.49 53.71-31.49L53.71-31.49Q53.17-31.49 52.68-31.35L52.68-31.35Q51.75-31.3 50.9-31.23 50.04-31.15 49.16-31.1L49.16-31.1Q48.58-31.15 48.46-31.13 48.33-31.1 48.19-31.1L48.19-31.1Q47.8-31.1 47.6-31.3L47.6-31.3 47.6-31.93Q47.31-32.52 47.36-32.57 47.41-32.62 47.41-32.71L47.41-32.71Q47.41-32.86 47.14-33.03 46.87-33.2 46.87-33.59L46.87-33.59Q46.82-33.98 46.67-34.18 46.53-34.38 46.53-34.57L46.53-34.57Q46.53-34.91 46.67-35.35L46.67-35.35Q47.11-35.6 47.53-35.69 47.94-35.79 48.48-35.94L48.48-35.94Q48.77-36.04 49.02-36.13 49.26-36.23 49.56-36.28L49.56-36.28Q49.9-36.33 50.24-36.33 50.58-36.33 50.92-36.38L50.92-36.38Q51.66-36.52 52.46-36.62 53.27-36.72 54-36.72L54-36.72Q54.68-36.72 55.37-36.55 56.05-36.38 56.59-36.38L56.59-36.38Q57.37-36.38 58.08-36.28 58.78-36.18 59.57-36.18L59.57-36.18Q59.66-36.18 59.88-36.11 60.1-36.04 60.4-36.04L60.4-36.04 65.13-36.04Q65.52-35.94 65.69-35.99 65.86-36.04 66.01-36.04L66.01-36.04Q66.4-36.04 66.74-35.99 67.08-35.94 67.48-35.94L67.48-35.94Q67.82-35.94 68.01-35.99L68.01-35.99Q68.4-35.94 68.75-35.77 69.09-35.6 69.53-35.6L69.53-35.6Q69.72-35.45 69.82-35.23 69.92-35.01 70.16-34.91ZM94.43-4.69L94.43-4.69Q94.38-3.96 94.74-3.59 95.11-3.22 95.35-2.69L95.35-2.69Q95.26-2 95.5-1.61L95.5-1.61Q95.35-1.32 95.21-0.95 95.06-0.59 94.77-0.34L94.77-0.34Q93.99 0 93.84 0.24 93.69 0.49 93.25 0.49L93.25 0.49Q93.01 0.73 92.72 1 92.42 1.27 92.18 1.51L92.18 1.51Q91.94 1.42 91.84 1.27 91.74 1.12 91.55 0.88L91.55 0.88Q91.06 0.73 90.67 0.37 90.28 0 89.98-0.46 89.69-0.93 89.42-1.44 89.15-1.95 88.96-2.39L88.96-2.39Q88.27-3.66 87.57-4.96 86.86-6.25 86.13-7.52L86.13-7.52Q85.73-8.15 85.37-8.81 85-9.47 84.61-10.16L84.61-10.16Q84.51-10.25 84.42-10.38 84.32-10.5 84.22-10.64L84.22-10.64Q83.88-11.13 83.71-11.74 83.54-12.35 83-12.74L83-12.74Q82.07-12.84 81.32-12.48 80.56-12.11 79.97-11.52L79.97-11.52Q80.02-11.18 80.02-10.89 80.02-10.6 80.02-10.3L80.02-10.3Q80.02-9.18 79.92-8.15 79.83-7.13 79.83-6.01L79.83-6.01Q79.83-5.52 79.88-5 79.92-4.49 80.02-4L80.02-4Q79.88-3.47 79.88-2.83L79.88-2.83Q79.88-2.49 79.95-2.2 80.02-1.9 80.02-1.56L80.02-1.56Q80.02-1.07 79.7-0.9 79.39-0.73 79.48-0.29L79.48-0.29Q78.9-0.05 78.36 0.2 77.82 0.44 77.24 0.54L77.24 0.54Q76.99 0.59 76.75 0.56 76.51 0.54 76.31 0.63L76.31 0.63Q76.07 0.73 75.92 1 75.77 1.27 75.53 1.27L75.53 1.27Q75.24 1.27 75.19 1.05 75.14 0.83 74.99 0.68L74.99 0.68Q74.75 0.59 74.6 0.59 74.46 0.59 74.31 0.44L74.31 0.44Q74.36 0 74.11-0.22 73.87-0.44 73.87-1.12L73.87-1.12Q73.87-1.66 73.94-2.15 74.02-2.64 74.02-3.17L74.02-3.17Q74.02-3.61 73.89-3.98 73.77-4.35 73.67-4.79L73.67-4.79Q73.63-4.98 73.67-5.18 73.72-5.37 73.72-5.57L73.72-5.57Q73.72-6.45 73.65-7.35 73.58-8.25 73.58-9.13L73.58-9.13Q73.58-9.47 73.58-9.77 73.58-10.06 73.63-10.35L73.63-10.35Q73.72-10.64 73.8-10.84 73.87-11.04 73.87-11.33L73.87-11.33Q73.87-12.26 73.67-13.16 73.48-14.06 73.48-14.94L73.48-14.94Q73.48-15.43 73.5-15.94 73.53-16.46 73.53-16.94L73.53-16.94Q73.53-18.36 73.48-19.73 73.43-21.09 73.43-22.46L73.43-22.46Q73.43-23.44 73.48-24.39 73.53-25.34 73.53-26.32L73.53-26.32Q73.53-27.54 73.43-28.74 73.33-29.93 73.33-31.2L73.33-31.2Q73.33-31.64 73.28-31.79 73.23-31.93 73.14-31.96 73.04-31.98 72.92-32.01 72.8-32.03 72.7-32.18L72.7-32.18Q72.7-32.47 72.94-32.59 73.19-32.71 73.19-33.4L73.19-33.4Q73.19-33.79 73.11-34.18 73.04-34.57 73.04-34.96L73.04-34.96Q73.04-35.55 73.28-36.13 73.53-36.72 73.72-37.26L73.72-37.26Q74.31-37.3 74.53-37.26 74.75-37.21 74.99-37.3L74.99-37.3Q75.14-36.77 75.63-36.74 76.12-36.72 76.51-36.62L76.51-36.62Q76.95-36.57 77.36-36.4 77.78-36.23 78.17-36.23L78.17-36.23Q78.26-35.94 78.58-35.82 78.9-35.69 79.24-35.6L79.24-35.6Q79.63-35.64 79.85-35.94 80.07-36.23 80.46-36.23L80.46-36.23Q80.75-36.23 81.14-35.82 81.54-35.4 81.73-35.16L81.73-35.16Q81.93-35.01 82.46-34.52 83-34.03 83.64-33.52 84.27-33.01 84.81-32.54 85.34-32.08 85.49-32.03L85.49-32.03Q87.49-30.03 89.23-28.39 90.96-26.76 93.01-25.44L93.01-25.44Q93.06-25.29 93.13-25.2 93.21-25.1 93.3-24.95L93.3-24.95Q93.3-24.56 93.16-24.37 93.01-24.17 93.01-23.88L93.01-23.88Q93.01-23.73 93.08-23.58 93.16-23.44 93.16-23.29L93.16-23.29Q93.21-23.1 93.18-22.92 93.16-22.75 93.16-22.56L93.16-22.56Q93.16-22.07 93.47-21.68 93.79-21.29 93.79-20.8L93.79-20.8Q93.69-20.36 93.4-20.26 93.11-20.17 92.91-20.02L92.91-20.02Q92.81-19.92 92.74-19.78 92.67-19.63 92.57-19.53L92.57-19.53Q91.5-19.04 91.01-18.63 90.52-18.21 89.98-17.82L89.98-17.82Q89.84-17.72 89.49-17.5 89.15-17.29 88.81-17.07 88.47-16.85 88.2-16.6 87.93-16.36 87.93-16.21L87.93-16.21Q87.93-15.87 88.35-15.26 88.76-14.65 88.96-14.31L88.96-14.31Q89.49-13.43 89.93-12.57 90.37-11.72 90.91-10.89L90.91-10.89Q91.89-9.38 92.74-7.81 93.6-6.25 94.43-4.69ZM86.47-22.85L86.47-22.85Q85.34-24.27 84.05-25.42 82.76-26.56 81.58-27.83L81.58-27.83 81.05-27.93Q80.75-28.42 80.39-28.78 80.02-29.15 79.63-29.54L79.63-29.54Q79.68-29 79.68-28.52 79.68-28.03 79.68-27.49L79.68-27.49Q79.68-25.93 79.61-24.44 79.53-22.95 79.53-21.44L79.53-21.44Q79.53-19.92 79.68-18.55L79.68-18.55Q80.71-18.55 81.54-19.14L81.54-19.14Q81.88-19.38 82.17-19.65 82.46-19.92 82.81-20.17L82.81-20.17Q83.2-20.41 83.71-20.75 84.22-21.09 84.73-21.44 85.25-21.78 85.71-22.14 86.17-22.51 86.47-22.85ZM105.41-12.79L105.41-12.79Q105.51-12.55 106.12-11.77 106.73-10.99 107.51-10.06 108.29-9.13 109-8.28 109.71-7.42 110-7.03L110-7.03Q110.54-6.35 111.05-5.69 111.56-5.03 112-4.3L112-4.3 112.88-2.83Q113.27-2.34 113.59-2 113.91-1.66 114.1-1.07L114.1-1.07Q114.2-0.68 114.2-0.54L114.2-0.54Q114.2-0.2 113.95-0.05L113.95-0.05Q113.56-0.05 113.54 0.07 113.52 0.2 113.32 0.29L113.32 0.29Q113.12 0.39 112.71 0.42 112.29 0.44 112.05 0.44L112.05 0.44Q111.61 0.44 110.95 0.42 110.29 0.39 109.9 0.54L109.9 0.54Q109.8 0.59 109.61 0.68 109.41 0.78 109.32 0.78L109.32 0.78Q108.93 0.78 108.75 0.66 108.58 0.54 108.29 0.49L108.29 0.49Q107.9 0.05 107.63-0.42 107.36-0.88 107.02-1.37L107.02-1.37Q106.68-1.71 106.34-1.98 106-2.25 105.75-2.59L105.75-2.59Q105.02-3.66 104.24-4.69 103.46-5.71 102.63-6.69L102.63-6.69Q102.24-7.23 101.8-7.67 101.36-8.11 100.97-8.64L100.97-8.64Q100.58-9.13 100.23-9.69 99.89-10.25 99.55-10.79L99.55-10.79Q99.26-11.23 98.77-11.94 98.28-12.65 97.7-13.35 97.11-14.06 96.52-14.7 95.94-15.33 95.55-15.67L95.55-15.67Q95.5-15.97 95.3-16.14 95.11-16.31 94.86-16.46L94.86-16.46Q94.77-16.7 94.64-16.92 94.52-17.14 94.52-17.38L94.52-17.38Q94.52-17.72 94.67-18.02L94.67-18.02Q94.77-18.21 94.79-18.38 94.81-18.55 94.91-18.75L94.91-18.75Q95.16-19.29 95.57-19.8 95.99-20.31 96.23-20.9L96.23-20.9Q96.33-21.04 96.33-21.22 96.33-21.39 96.43-21.53L96.43-21.53Q96.52-21.92 96.84-22.19 97.16-22.46 97.35-22.8L97.35-22.8Q97.6-23.19 97.82-23.61 98.04-24.02 98.28-24.51L98.28-24.51Q99.01-25.73 99.82-26.88 100.62-28.03 101.45-29.2L101.45-29.2Q102.09-30.18 102.7-31.08 103.31-31.98 103.95-32.91L103.95-32.91Q104.29-33.35 104.68-33.94 105.07-34.52 105.53-35.11 106-35.69 106.48-36.18 106.97-36.67 107.46-36.96L107.46-36.96Q108.19-37.01 108.44-36.65 108.68-36.28 109.17-36.28L109.17-36.28Q109.8-36.13 110-35.89 110.2-35.64 110.44-35.4L110.44-35.4Q111.12-35.4 111.54-35.16 111.95-34.91 112.34-34.42L112.34-34.42Q112.2-33.89 111.9-33.47 111.61-33.06 111.37-32.62L111.37-32.62Q110.98-32.42 110.81-32.08 110.63-31.74 110.29-31.54L110.29-31.54Q109.8-30.71 109.27-29.96 108.73-29.2 108.19-28.47L108.19-28.47Q107.9-28.03 107.58-27.69 107.27-27.34 107.02-26.95L107.02-26.95Q106.92-26.81 106.85-26.64 106.78-26.46 106.68-26.32L106.68-26.32Q106.09-25.39 105.41-24.58 104.73-23.78 104.14-22.8L104.14-22.8Q103.95-22.46 103.82-22.09 103.7-21.73 103.51-21.39L103.51-21.39Q103.31-21.09 102.94-20.61 102.58-20.12 102.24-19.56 101.89-18.99 101.63-18.48 101.36-17.97 101.36-17.63L101.36-17.63Q101.41-17.38 101.97-16.67 102.53-15.97 103.24-15.16 103.95-14.36 104.58-13.65 105.21-12.94 105.41-12.79ZM108.63-21.68L108.63-21.68Q108.97-20.95 109.37-20.41L109.37-20.41Q109.51-20.21 109.71-20.07 109.9-19.92 110-19.68L110-19.68Q110.1-19.58 110.2-19.26 110.29-18.95 110.39-18.8L110.39-18.8Q110.54-18.41 110.98-17.92 111.42-17.43 111.42-17.04L111.42-17.04Q111.42-16.8 111.32-16.5 111.22-16.21 111.17-15.97L111.17-15.97Q111.12-15.67 111.12-15.36 111.12-15.04 110.93-14.79L110.93-14.79Q110.68-14.55 110.39-14.5 110.1-14.45 109.85-14.26L109.85-14.26Q109.76-14.16 109.56-13.92 109.37-13.67 109.17-13.38 108.97-13.09 108.8-12.82 108.63-12.55 108.63-12.4L108.63-12.4Q108.05-12.35 107.88-12.38 107.7-12.4 107.51-12.35L107.51-12.35Q107.27-12.6 107-12.77 106.73-12.94 106.34-13.09L106.34-13.09Q106.24-13.48 105.9-13.99 105.56-14.5 105.31-14.84L105.31-14.84 104.97-15.28Q104.24-16.31 103.63-17.26 103.02-18.21 102.72-19.38L102.72-19.38Q103.65-20.07 104.16-20.41 104.68-20.75 105.26-21.04 105.85-21.34 106.41-21.61 106.97-21.88 107.46-22.27L107.46-22.27Q107.85-22.27 108-22.22 108.14-22.17 108.19-22.12 108.24-22.07 108.32-21.95 108.39-21.83 108.63-21.68ZM126.45-35.99L126.45-35.99Q126.55-35.79 126.67-35.72 126.79-35.64 126.84-35.4L126.84-35.4Q127.18-35.16 127.38-35.03 127.58-34.91 127.62-34.62L127.62-34.62Q128.06-34.28 128.14-34.18 128.21-34.08 128.26-33.94L128.26-33.94Q128.5-33.74 128.72-33.59 128.94-33.45 129.04-33.15L129.04-33.15Q129.43-32.81 129.53-32.62 129.63-32.42 129.68-32.18L129.68-32.18Q129.48-31.84 128.89-31.25 128.31-30.66 127.58-30 126.84-29.35 126.16-28.74 125.48-28.13 125.09-27.78L125.09-27.78Q124.99-27.59 124.84-27.44 124.69-27.29 124.6-27.1L124.6-27.1Q124.3-26.86 124.06-26.59 123.82-26.32 123.47-26.17L123.47-26.17Q122.99-25.49 122.11-24.83 121.23-24.17 120.93-23.54L120.93-23.54Q120.98-23.39 121.15-23.24 121.33-23.1 121.42-23L121.42-23Q121.81-22.61 122.35-22.29 122.89-21.97 123.28-21.58L123.28-21.58Q123.67-21.24 124.06-20.92 124.45-20.61 124.84-20.26L124.84-20.26Q125.04-20.07 125.33-19.68L125.33-19.68Q125.82-19.29 126.28-18.97 126.75-18.65 127.18-18.26L127.18-18.26Q128.11-17.48 128.99-16.67 129.87-15.87 130.85-15.09L130.85-15.09 131.24-14.65Q131.24-14.26 131.46-13.75 131.68-13.23 131.87-12.89L131.87-12.89Q131.77-12.4 131.9-12.28 132.02-12.16 132.12-12.06L132.12-12.06Q132.07-11.13 132.17-10.84L132.17-10.84Q131.34-10.11 130.63-9.5 129.92-8.89 129.38-8.3L129.38-8.3Q128.94-7.76 128.48-7.35 128.01-6.93 127.48-6.45L127.48-6.45Q127.18-6.05 126.99-5.91L126.99-5.91Q126.65-5.57 126.31-5.37L126.31-5.37Q125.72-4.83 125.16-4.35 124.6-3.86 124.06-3.37L124.06-3.37Q123.67-3.03 123.33-2.71 122.99-2.39 122.64-2L122.64-2Q122.35-1.71 121.98-1.32 121.62-0.93 121.23-0.68L121.23-0.68Q121.08-0.39 120.84-0.17 120.59 0.05 120.4 0.29L120.4 0.29Q120.06 0.49 119.76 0.68 119.47 0.88 119.08 1.07L119.08 1.07Q118.69 0.78 118.32 0.54 117.96 0.29 117.52 0.2L117.52 0.2Q117.22-0.05 117.08-0.29 116.93-0.54 116.54-0.63L116.54-0.63Q116.44-0.78 116.32-0.95 116.2-1.12 116.1-1.32L116.1-1.32Q115.51-1.37 115.17-2.05L115.17-2.05Q115.27-2.34 115.44-2.49 115.61-2.64 115.51-3.03L115.51-3.03Q115.81-3.52 116.22-3.88 116.64-4.25 117.03-4.64L117.03-4.64Q117.47-5.03 117.83-5.44 118.2-5.86 118.64-6.25L118.64-6.25Q118.88-6.49 119.13-6.71 119.37-6.93 119.67-7.18L119.67-7.18Q120.2-7.71 120.76-8.18 121.33-8.64 121.91-9.18L121.91-9.18Q122.69-9.96 123.52-10.67 124.35-11.38 125.04-12.26L125.04-12.26Q124.99-12.45 124.89-12.52 124.79-12.6 124.74-12.74L124.74-12.74Q123.96-13.48 123.21-14.18 122.45-14.89 121.57-15.43L121.57-15.43Q121.28-15.72 121.18-15.92L121.18-15.92Q120.3-16.55 119.49-17.33 118.69-18.12 117.71-18.65L117.71-18.65Q117.52-18.9 117.25-19.07 116.98-19.24 116.74-19.38L116.74-19.38Q116.59-19.63 116.42-19.8 116.25-19.97 116-20.07L116-20.07Q115.61-20.41 115.49-20.63 115.37-20.85 115.08-20.9L115.08-20.9Q114.98-21.14 114.76-21.29 114.54-21.44 114.29-21.63L114.29-21.63Q114.2-21.92 114-22.12L114-22.12Q113.95-22.51 114.05-22.68 114.15-22.85 114.2-22.95L114.2-22.95Q114.15-23.24 113.93-23.39 113.71-23.54 113.71-23.88L113.71-23.88Q113.71-24.07 113.83-24.15 113.95-24.22 114-24.37L114-24.37 114.15-25.1Q114.54-25.39 114.81-25.81 115.08-26.22 115.51-26.46L115.51-26.46Q116-27.2 116.74-27.69L116.74-27.69Q116.98-28.08 117.35-28.32 117.71-28.56 117.96-28.96L117.96-28.96Q118.35-29.2 118.62-29.49 118.88-29.79 119.27-30.03L119.27-30.03Q119.37-30.22 119.49-30.35 119.62-30.47 119.67-30.62L119.67-30.62Q120.98-31.88 121.98-32.81 122.99-33.74 124.06-34.67L124.06-34.67Q124.35-34.91 124.65-35.21 124.94-35.5 125.28-35.74L125.28-35.74Q125.38-35.84 125.52-35.84 125.67-35.84 125.82-35.94L125.82-35.94Q126.4-35.94 126.45-35.99ZM154.77-34.91L154.77-34.91Q154.67-34.72 154.7-34.52 154.72-34.33 154.72-34.08L154.72-34.08Q154.62-33.5 154.72-33.5 154.82-33.5 154.82-33.4L154.82-33.4 154.48-32.91Q154.48-32.62 154.36-32.37 154.23-32.13 154.28-31.79L154.28-31.79Q154.14-31.54 154.01-31.3 153.89-31.05 153.65-30.81L153.65-30.81 153.01-30.81Q152.48-30.81 151.86-30.74 151.25-30.66 150.67-30.66L150.67-30.66Q150.57-30.66 150.42-30.69 150.28-30.71 150.13-30.71L150.13-30.71Q150.03-30.71 149.89-30.69 149.74-30.66 149.55-30.66L149.55-30.66Q148.81-30.66 148.11-30.74 147.4-30.81 146.62-30.81L146.62-30.81Q146.42-30.81 146.23-30.81 146.03-30.81 145.79-30.76L145.79-30.76Q145.74-29.93 145.71-29.08 145.69-28.22 145.69-27.34L145.69-27.34Q145.69-27.1 145.64-26.83 145.59-26.56 145.59-26.32L145.59-26.32Q145.54-25.68 145.52-25.1 145.49-24.51 145.49-23.88L145.49-23.88Q145.49-22.51 145.52-21.14 145.54-19.78 145.59-18.36L145.59-18.36Q145.64-17.63 145.69-16.94 145.74-16.26 145.74-15.53L145.74-15.53Q145.74-13.87 145.69-12.23 145.64-10.6 145.64-8.94L145.64-8.94Q145.64-8.4 145.59-7.93 145.54-7.47 145.54-6.93L145.54-6.93Q145.54-5.81 145.59-4.69 145.64-3.56 145.64-2.44L145.64-2.44Q145.64-1.9 145.61-1.37 145.59-0.83 145.59-0.29L145.59-0.29Q145.35 0.1 145.25 0.39 145.15 0.68 144.66 0.68L144.66 0.68Q144.32 0.59 144.35 0.46 144.37 0.34 144.27 0.24L144.27 0.24Q143.83 0.2 143.61 0.32 143.39 0.44 143.1 0.54L143.1 0.54Q142.95 0.49 142.78 0.49 142.61 0.49 142.47 0.49L142.47 0.49Q142.37 0.49 142.27 0.56 142.17 0.63 141.83 0.63L141.83 0.63Q141.54 0.68 141.49 0.54 141.44 0.39 141.2 0.39L141.2 0.39Q140.95 0.54 140.63 0.61 140.32 0.68 140.02 0.68L140.02 0.68Q139.73 0.49 139.76 0.32 139.78 0.15 139.68-0.05L139.68-0.05Q139.63-0.15 139.51-0.32 139.39-0.49 139.29-0.59L139.29-0.59Q139.39-1.27 139.44-1.81 139.49-2.34 139.49-2.98L139.49-2.98Q139.49-4.25 139.39-5.47 139.29-6.69 139.29-7.96L139.29-7.96Q139.29-8.35 139.39-8.79 139.49-9.23 139.49-9.72L139.49-9.72Q139.39-10.11 139.44-10.18 139.49-10.25 139.49-10.35L139.49-10.35Q139.49-10.64 139.46-10.94 139.44-11.23 139.44-11.52L139.44-11.52Q139.44-12.11 139.46-12.7 139.49-13.28 139.49-13.87L139.49-13.87Q139.49-14.11 139.46-14.38 139.44-14.65 139.44-14.89L139.44-14.89Q139.39-15.33 139.41-15.82 139.44-16.31 139.44-16.8L139.44-16.8Q139.44-19.14 139.36-21.44 139.29-23.73 139.29-26.07L139.29-26.07Q139.29-27.25 139.41-28.39 139.54-29.54 139.54-30.71L139.54-30.71Q139.54-30.86 139.44-31.1 139.34-31.35 139.24-31.45L139.24-31.45Q139-31.45 138.78-31.47 138.56-31.49 138.32-31.49L138.32-31.49Q137.78-31.49 137.29-31.35L137.29-31.35Q136.36-31.3 135.51-31.23 134.65-31.15 133.77-31.1L133.77-31.1Q133.19-31.15 133.07-31.13 132.94-31.1 132.8-31.1L132.8-31.1Q132.41-31.1 132.21-31.3L132.21-31.3 132.21-31.93Q131.92-32.52 131.97-32.57 132.02-32.62 132.02-32.71L132.02-32.71Q132.02-32.86 131.75-33.03 131.48-33.2 131.48-33.59L131.48-33.59Q131.43-33.98 131.28-34.18 131.14-34.38 131.14-34.57L131.14-34.57Q131.14-34.91 131.28-35.35L131.28-35.35Q131.72-35.6 132.14-35.69 132.55-35.79 133.09-35.94L133.09-35.94Q133.38-36.04 133.63-36.13 133.87-36.23 134.16-36.28L134.16-36.28Q134.51-36.33 134.85-36.33 135.19-36.33 135.53-36.38L135.53-36.38Q136.26-36.52 137.07-36.62 137.88-36.72 138.61-36.72L138.61-36.72Q139.29-36.72 139.98-36.55 140.66-36.38 141.2-36.38L141.2-36.38Q141.98-36.38 142.69-36.28 143.39-36.18 144.17-36.18L144.17-36.18Q144.27-36.18 144.49-36.11 144.71-36.04 145-36.04L145-36.04 149.74-36.04Q150.13-35.94 150.3-35.99 150.47-36.04 150.62-36.04L150.62-36.04Q151.01-36.04 151.35-35.99 151.69-35.94 152.08-35.94L152.08-35.94Q152.43-35.94 152.62-35.99L152.62-35.99Q153.01-35.94 153.35-35.77 153.7-35.6 154.14-35.6L154.14-35.6Q154.33-35.45 154.43-35.23 154.53-35.01 154.77-34.91ZM165.02-33.2L165.02-33.2Q165.02-32.76 164.73-32.54 164.44-32.32 164.19-31.98L164.19-31.98Q163.7-31.54 163.34-31.08 162.97-30.62 162.48-30.18L162.48-30.18Q162.29-29.98 161.95-29.66 161.6-29.35 161.24-29.03 160.87-28.71 160.5-28.47 160.14-28.22 159.89-28.22L159.89-28.22Q159.5-28.22 158.89-28.49 158.28-28.76 157.84-28.86L157.84-28.86Q157.5-28.91 157.23-28.93 156.96-28.96 156.72-29.2L156.72-29.2Q155.84-29.39 155.6-29.81 155.35-30.22 155.06-30.66L155.06-30.66Q155.06-30.86 155.21-30.91 155.35-30.96 155.45-31.1L155.45-31.1Q155.94-31.74 156.28-32.15 156.62-32.57 157.06-33.01L157.06-33.01Q157.89-33.74 158.65-34.52 159.41-35.3 160.24-35.99L160.24-35.99Q160.63-36.04 160.82-36.28 161.02-36.52 161.41-36.52L161.41-36.52Q161.8-36.52 162.07-36.28 162.34-36.04 162.56-35.72 162.78-35.4 163-35.08 163.21-34.77 163.51-34.62L163.51-34.62Q163.85-34.38 164.44-33.98 165.02-33.59 165.02-33.2ZM158.33-24.12L158.33-24.12Q158.67-23.93 158.84-23.61 159.02-23.29 159.36-23.14L159.36-23.14Q159.65-23 159.99-23 160.33-23 160.58-22.9L160.58-22.9Q160.77-22.8 160.87-22.66 160.97-22.51 161.07-22.36L161.07-22.36Q161.36-22.12 161.97-21.92 162.58-21.73 162.78-21.48L162.78-21.48Q163.12-21.04 163.29-20.36 163.46-19.68 163.56-18.92 163.65-18.16 163.7-17.41 163.75-16.65 163.85-16.11L163.85-16.11Q163.95-14.99 164.09-13.89 164.24-12.79 164.24-11.67L164.24-11.67Q164.24-10.55 164.14-9.38 164.05-8.2 164.05-7.08L164.05-7.08Q164.05-6.49 164.02-5.62 164-4.74 163.61-4.25L163.61-4.25Q163.56-4.05 163.56-3.56L163.56-3.56 163.56-2Q163.56-1.71 163.61-1.42 163.65-1.12 163.65-0.78L163.65-0.78Q163.65-0.24 163.36 0L163.36 0Q163.21-0.05 163.04-0.05 162.87-0.05 162.73-0.05L162.73-0.05Q162.19-0.05 161.95 0.15L161.95 0.15Q161.41 0.1 160.92 0.05 160.43 0 159.89 0L159.89 0Q159.06 0 158.09 0.24L158.09 0.24Q157.89-0.24 157.92-0.78 157.94-1.32 157.7-1.76L157.7-1.76Q157.65-1.9 157.62-2.03 157.6-2.15 157.6-2.29L157.6-2.29Q157.75-2.88 157.75-3.1 157.75-3.32 157.75-3.56L157.75-3.56Q157.75-4.25 157.7-4.96 157.65-5.66 157.75-6.35L157.75-6.35Q157.75-6.59 157.82-6.79 157.89-6.98 157.89-7.23L157.89-7.23Q157.89-7.47 157.8-7.57 157.7-7.67 157.7-7.81L157.7-7.81Q157.7-7.96 157.72-8.3 157.75-8.64 157.84-8.74L157.84-8.74Q157.84-9.13 157.87-9.5 157.89-9.86 157.89-10.21L157.89-10.21Q157.89-10.99 157.84-11.77 157.8-12.55 157.8-13.28L157.8-13.28Q157.8-13.62 157.75-13.72 157.7-13.82 157.65-13.87 157.6-13.92 157.5-13.94 157.4-13.96 157.36-14.11L157.36-14.11Q157.55-16.26 157.21-18.41 156.87-20.56 156.87-22.75L156.87-22.75Q156.87-23.1 156.96-23.27 157.06-23.44 157.21-23.54 157.36-23.63 157.48-23.75 157.6-23.88 157.65-24.12L157.65-24.12Q158.04-24.02 158.33-24.12ZM186.06-35.25L186.06-35.25Q186.45-34.67 186.72-34.06 186.99-33.45 186.99-33.2L186.99-33.2Q186.99-32.86 186.89-32.64 186.8-32.42 186.6-32.13L186.6-32.13Q184.75-31.3 182.87-30.42 180.99-29.54 179.03-28.76L179.03-28.76Q178.54-28.56 178.11-28.37 177.67-28.17 177.13-27.98L177.13-27.98Q177.03-27.88 176.71-27.81 176.4-27.73 176.15-27.73L176.15-27.73Q176.25-26.76 176.27-25.73 176.3-24.71 176.35-23.68L176.35-23.68Q176.35-23.39 176.44-23.12 176.54-22.85 176.54-22.56L176.54-22.56Q176.64-21.63 176.64-20.75 176.64-19.87 176.74-18.95L176.74-18.95Q178.54-19.73 180.33-20.53 182.11-21.34 183.92-22.12L183.92-22.12Q184.21-22.07 184.55-22.02 184.89-21.97 185.19-21.83L185.19-21.83Q185.28-21.73 185.38-21.58 185.48-21.44 185.62-21.34L185.62-21.34Q185.62-21.09 185.94-20.63 186.26-20.17 186.26-19.63L186.26-19.63Q186.26-19.53 186.41-19.31 186.55-19.09 186.6-18.99L186.6-18.99Q186.6-18.51 186.55-18.46L186.55-18.46Q186.89-18.21 187.02-17.82 187.14-17.43 187.14-17.04L187.14-17.04Q186.26-16.06 185.4-15.72 184.55-15.38 183.67-14.99L183.67-14.99Q183.43-14.84 183.13-14.7 182.84-14.55 182.55-14.4L182.55-14.4Q182.16-14.26 181.79-14.14 181.43-14.01 181.03-13.82L181.03-13.82Q180.45-13.48 179.72-13.04 178.98-12.6 178.4-12.5L178.4-12.5Q178.01-12.4 177.74-12.38 177.47-12.35 177.13-12.11L177.13-12.11Q177.08-11.52 177.1-10.96 177.13-10.4 177.13-9.86L177.13-9.86Q177.13-9.28 177.06-8.72 176.98-8.15 176.98-7.57L176.98-7.57Q176.98-6.59 176.88-5.64 176.79-4.69 176.79-3.76L176.79-3.76Q176.79-3.17 176.84-2.61 176.88-2.05 176.88-1.51L176.88-1.51Q176.88-1.22 176.79-0.98 176.69-0.73 176.59-0.49L176.59-0.49Q175.91-0.39 175.76-0.51 175.61-0.63 175.42-0.73L175.42-0.73Q175.18-0.73 175.1-0.54 175.03-0.34 174.78-0.24L174.78-0.24Q174.59-0.29 174.37-0.27 174.15-0.24 174-0.34L174-0.34Q173.61-0.2 173.3 0 172.98 0.2 172.59 0.29L172.59 0.29Q171.86 0.2 171.68 0.22 171.51 0.24 171.32 0.29L171.32 0.29Q170.98-0.05 171-0.56 171.02-1.07 170.73-1.46L170.73-1.46Q170.73-1.95 170.63-2.08 170.54-2.2 170.54-2.29L170.54-2.29Q170.54-2.44 170.56-2.61 170.59-2.78 170.59-2.98L170.59-2.98Q170.59-3.42 170.54-3.66L170.54-3.66Q170.59-3.96 170.63-4.57 170.68-5.18 170.73-5.83 170.78-6.49 170.78-7.13 170.78-7.76 170.78-8.15L170.78-8.15Q170.78-8.4 170.88-8.57 170.98-8.74 170.98-8.98L170.98-8.98Q170.98-9.38 170.95-9.69 170.93-10.01 170.93-10.35L170.93-10.35Q170.93-11.04 170.95-11.72 170.98-12.4 170.98-13.09L170.98-13.09Q170.98-15.19 170.76-17.21 170.54-19.24 170.54-21.29L170.54-21.29Q170.54-22.41 170.44-23.75 170.34-25.1 170.19-26.22L170.19-26.22Q170.19-26.46 170.12-26.64 170.05-26.81 170.05-27L170.05-27Q170-27.59 170-28.2 170-28.81 170-29.44L170-29.44Q170-29.83 170-30.54 170-31.25 170-32.01 170-32.76 170.02-33.45 170.05-34.13 170.1-34.42L170.1-34.42Q170.1-34.47 170.39-34.59 170.68-34.72 170.78-34.72L170.78-34.72Q171.02-34.72 171.17-34.57 171.32-34.42 171.51-34.28L171.51-34.28Q171.71-34.42 171.93-34.42 172.15-34.42 172.39-34.42L172.39-34.42Q173.12-34.57 173.3-34.4 173.47-34.23 173.56-34.23L173.56-34.23Q173.71-34.23 173.81-34.38 173.91-34.52 174.05-34.52L174.05-34.52Q174.44-34.52 174.52-34.33 174.59-34.13 174.78-34.13L174.78-34.13Q174.98-34.13 175.08-34.28 175.18-34.42 175.27-34.42L175.27-34.42Q175.42-34.42 175.57-34.35 175.71-34.28 175.86-34.28L175.86-34.28Q176.1-34.28 176.4-34.45 176.69-34.62 176.93-34.72L176.93-34.72Q177.32-34.81 177.64-34.96 177.96-35.11 178.3-35.21L178.3-35.21Q179.03-35.64 179.4-35.77 179.77-35.89 180.16-36.08L180.16-36.08Q180.99-36.47 181.74-36.84 182.5-37.21 183.33-37.55L183.33-37.55Q183.77-37.55 183.92-37.74L183.92-37.74Q184.26-37.6 184.79-37.7L184.79-37.7Q185.38-37.16 185.55-36.87 185.72-36.57 185.97-36.33L185.97-36.33Q186.26-35.94 186.36-35.94L186.36-35.94Q186.36-35.79 186.21-35.6 186.06-35.4 186.06-35.25ZM211.7-34.57L211.7-34.57Q211.16-33.59 210.48-32.28 209.79-30.96 209.4-29.98L209.4-29.98Q209.25-29.64 209.13-29.32 209.01-29 208.86-28.66L208.86-28.66Q208.62-27.93 208.25-27.27 207.89-26.61 207.59-25.88L207.59-25.88Q207.16-24.9 206.69-23.9 206.23-22.9 205.79-21.83L205.79-21.83Q205.3-20.85 205.03-20.14 204.76-19.43 204.47-18.7 204.18-17.97 203.96-17.26 203.74-16.55 203.59-15.97L203.59-15.97Q203.15-15.19 202.86-14.79L202.86-14.79Q202.76-13.92 202.66-13.04 202.57-12.16 202.57-11.23L202.57-11.23Q202.57-10.79 202.64-10.38 202.71-9.96 202.76-9.52L202.76-9.52Q202.81-8.89 202.79-8.28 202.76-7.67 202.81-7.03L202.81-7.03Q202.86-5.81 202.93-4.61 203-3.42 203.05-2.15L203.05-2.15Q203.1-1.27 202.98-0.66 202.86-0.05 202.91 0.59L202.91 0.59Q202.76 0.68 202.59 0.73 202.42 0.78 202.27 0.88L202.27 0.88Q201.74 0.88 201.56 0.85 201.39 0.83 201.25 0.93L201.25 0.93Q200.81 0.63 200.76 0.66 200.71 0.68 200.66 0.68L200.66 0.68Q200.08 0.49 200.03 0.39 199.98 0.29 199.83 0.2L199.83 0.2Q199.29 0.2 198.95 0.34L198.95 0.34Q198.81 0.24 198.71 0.15 198.61 0.05 198.46-0.05L198.46-0.05Q198.02-0.1 197.73-0.17 197.44-0.24 197.24-0.34L197.24-0.34Q197.1-0.73 196.93-1.03 196.75-1.32 196.75-1.81L196.75-1.81Q196.75-2.2 196.85-2.54 196.95-2.88 197-3.27L197-3.27Q197-3.52 196.97-3.71 196.95-3.91 196.95-4.15L196.95-4.15Q196.95-4.39 197.05-4.79L197.05-4.79Q196.9-5.91 196.93-7.15 196.95-8.4 196.95-9.52L196.95-9.52Q196.95-10.64 196.75-11.62L196.75-11.62Q196.8-12.26 196.75-12.52 196.71-12.79 196.71-13.09L196.71-13.09Q196.71-13.33 196.75-13.6 196.8-13.87 196.8-14.11L196.8-14.11Q196.8-14.16 196.73-14.62 196.66-15.09 196.56-15.6 196.46-16.11 196.36-16.58 196.27-17.04 196.27-17.14L196.27-17.14Q195.78-18.02 195.53-18.8 195.29-19.58 195-20.12L195-20.12Q194.8-20.51 194.61-20.9 194.41-21.29 194.26-21.73L194.26-21.73Q194.17-21.97 194.09-22.27 194.02-22.56 193.92-22.8L193.92-22.8Q193.73-23.19 193.56-23.66 193.39-24.12 193.14-24.41L193.14-24.41Q192.95-24.85 192.78-25.22 192.6-25.59 192.6-25.93L192.6-25.93Q192.46-26.51 192.14-26.98 191.82-27.44 191.58-27.93L191.58-27.93Q191.43-28.22 191.36-28.47 191.29-28.71 191.19-28.96L191.19-28.96Q191.09-29.15 190.92-29.44 190.75-29.74 190.55-29.88L190.55-29.88Q190.46-30.32 190.21-30.66 189.97-31.01 189.87-31.45L189.87-31.45Q189.63-31.79 189.33-32.13L189.33-32.13Q189.14-32.86 188.8-33.47 188.45-34.08 188.16-34.77L188.16-34.77Q188.36-35.79 189.28-36.04L189.28-36.04Q189.77-36.62 189.87-36.67 189.97-36.72 190.31-36.72L190.31-36.72Q190.6-36.96 190.9-37.13 191.19-37.3 191.58-37.21L191.58-37.21Q191.63-37.4 191.85-37.55 192.07-37.7 192.26-37.7L192.26-37.7Q192.56-37.7 192.78-37.4 193-37.11 193.24-36.96L193.24-36.96Q193.63-36.28 194.04-35.64 194.46-35.01 194.75-34.33L194.75-34.33Q195.09-33.64 195.36-32.96 195.63-32.28 196.17-31.64L196.17-31.64Q196.41-30.66 196.93-29.81 197.44-28.96 197.78-27.98L197.78-27.98Q198.02-27.39 198.34-26.83 198.66-26.27 198.9-25.63L198.9-25.63Q199.05-25.34 199.15-25.05 199.25-24.76 199.34-24.46L199.34-24.46Q199.44-24.22 199.54-23.83 199.64-23.44 199.78-23.19L199.78-23.19Q200.12-23.54 200.37-24.07L200.37-24.07Q200.71-24.76 201.08-25.37 201.44-25.98 201.74-26.66L201.74-26.66Q202.13-27.29 202.3-27.98 202.47-28.66 202.71-29.35L202.71-29.35Q202.81-29.59 202.93-29.83 203.05-30.08 203.15-30.37L203.15-30.37Q203.3-30.66 203.4-30.96 203.49-31.25 203.59-31.54L203.59-31.54Q203.93-32.47 204.35-33.37 204.76-34.28 205.2-35.21L205.2-35.21Q205.25-35.35 205.42-35.64 205.59-35.94 205.81-36.25 206.03-36.57 206.23-36.82 206.42-37.06 206.57-37.16L206.57-37.16Q206.67-37.26 206.89-37.28 207.11-37.3 207.25-37.35L207.25-37.35Q207.69-37.35 207.89-37.11L207.89-37.11Q208.47-36.87 208.77-36.77 209.06-36.67 209.21-36.33L209.21-36.33Q209.94-35.84 210.3-35.77 210.67-35.69 210.87-35.35L210.87-35.35Q211.4-35.01 211.5-34.86 211.6-34.72 211.7-34.57Z" opacity="1" transform="matrix(1,0,0,1,0,0)" fill="#001f3f" class="wordmark-text-0" data-fill-palette-color="primary" id="text-0"></path></svg></g></svg></g></svg></g></svg></g><g><svg viewBox="0 0 98.76830449635403 64.52584691417411" height="64.52584691417411" width="98.76830449635403"><g><svg xmlns="http://www.w3.org/2000/svg" xmlns:xlink="http://www.w3.org/1999/xlink" version="1.1" x="0" y="0" viewBox="0 16.641586303710938 95.99990844726562 62.71723937988281" enable-background="new 0 0 96 96" xml:space="preserve" height="64.52584691417411" width="98.76830449635403" class="icon-icon-0" data-fill-palette-color="accent" id="icon-0"><g fill="#c1c1c1" data-fill-palette-color="accent"><path d="M70.846 31.583c-6.247-6.248-16.374-6.248-22.621 0-6.248 6.246-6.248 16.373 0 22.621 6.247 6.246 16.374 6.246 22.621 0C77.093 47.956 77.093 37.829 70.846 31.583zM51.188 51.239c-4.611-4.609-4.611-12.084 0-16.693 4.609-4.611 12.084-4.611 16.694 0 4.61 4.609 4.61 12.084 0 16.693C63.272 55.851 55.798 55.851 51.188 51.239z" fill="#c1c1c1" data-fill-palette-color="accent"></path><path d="M93.927 70.29c-1.774-1.773-12.789-12.787-19.796-16.949l-4.058 4.059c4.186 6.982 15.085 18.111 16.859 19.885 2.395 2.395 5.9 2.771 7.832 0.838C96.697 76.19 96.321 72.685 93.927 70.29z" fill="#c1c1c1" data-fill-palette-color="accent"></path><g fill="#c1c1c1" data-fill-palette-color="accent"><path d="M91.408 63.81l-7.743-39.475-5.539 0.939 7.688 33.42C87.798 60.433 89.712 62.202 91.408 63.81z" fill="#c1c1c1" data-fill-palette-color="accent"></path><path d="M72.116 65.188c-11.76 1.775-22.138 6.652-22.138 6.652l-3.785 1.85-3.783-1.85c0 0-21.205-9.975-37.343-6.596l9.195-39.971-5.54-0.939L0 68.812l46.194 8.443 31.336-5.729C75.743 69.538 73.849 67.351 72.116 65.188z" fill="#c1c1c1" data-fill-palette-color="accent"></path></g><path d="M40.652 42.892c0-4.533 1.599-8.814 4.511-12.225v-8.09c-9.857-7.729-26.447-5.693-26.447-5.693L8.723 62.159c18.103-2.396 32.566 6.326 36.439 8.951V55.118C42.25 51.708 40.652 47.427 40.652 42.892z" fill="#c1c1c1" data-fill-palette-color="accent"></path><g fill="#c1c1c1" data-fill-palette-color="accent"><path d="M59.536 24.011c5.043 0 9.784 1.965 13.352 5.531 3.566 3.564 5.531 8.307 5.531 13.35 0 2.994-0.707 5.871-2.015 8.469 1.799 1.143 3.798 2.648 5.827 4.299l-8.559-38.775c0 0-16.592-2.035-26.449 5.693v6.02C50.649 25.638 54.964 24.011 59.536 24.011z" fill="#c1c1c1" data-fill-palette-color="accent"></path><path d="M68.11 59.71c-2.624 1.344-5.542 2.066-8.574 2.066-4.572 0-8.887-1.629-12.312-4.588V71.11c2.826-1.914 11.291-7.07 22.689-8.791C69.254 61.421 68.644 60.544 68.11 59.71z" fill="#c1c1c1" data-fill-palette-color="accent"></path></g></g></svg></g></svg></g></svg></g></svg></g></svg></g><path d="M188.26 95.337L188.26 31.604 4.267 31.604 4.267 215.596 188.26 215.596 188.26 151.863 185.355 151.863 185.355 212.691 7.173 212.691 7.173 34.509 185.355 34.509 185.355 95.337Z" fill="#001f3f" stroke="transparent" data-fill-palette-color="primary"></path></svg></g><defs></defs></svg><rect width="395.52" height="247.2" fill="none" stroke="none" visibility="hidden"></rect></g></svg></g></svg>