<svg xmlns="http://www.w3.org/2000/svg" version="1.1" xmlns:xlink="http://www.w3.org/1999/xlink" xmlns:svgjs="http://svgjs.dev/svgjs" width="1000" height="1000" viewBox="0 0 1000 1000"><rect width="1000" height="1000" fill="#ffffff"></rect><g transform="matrix(0.7,0,0,0.7,149.57575757575756,282.1265587044535)"><svg viewBox="0 0 396 247" data-background-color="#ffffff" preserveAspectRatio="xMidYMid meet" height="623" width="1000" xmlns="http://www.w3.org/2000/svg" xmlns:xlink="http://www.w3.org/1999/xlink"><g id="tight-bounds" transform="matrix(1,0,0,1,0.2400000000000091,-0.09999999999999432)"><svg viewBox="0 0 395.52 247.2" height="247.2" width="395.52"><g><svg></svg></g><g><svg viewBox="0 0 395.52 247.2" height="247.2" width="395.52"><mask id="cffc70a7-ee8e-4160-9ce4-b5c97b50d3d5"><rect width="640" height="400" fill="white"></rect><g transform="matrix(1,0,0,1,39.55199999999999,87.23034482758621)"><svg viewBox="0 0 316.416 72.73931034482757" height="72.73931034482757" width="316.416"><g><svg viewBox="0 0 316.416 72.73931034482757" height="72.73931034482757" width="316.416"><g><svg viewBox="0 0 316.416 72.73931034482757" height="72.73931034482757" width="316.416"><g><svg viewBox="0 0 316.416 72.73931034482757" height="72.73931034482757" width="316.416"><g id="SvgjsG1471"><svg viewBox="0 0 316.416 72.73931034482757" height="72.73931034482757" width="316.416" id="SvgjsSvg1470"><g><svg viewBox="0 0 316.416 72.73931034482757" height="72.73931034482757" width="316.416"><g transform="matrix(1,0,0,1,0,0)"><svg width="316.416" viewBox="-0.2999999523162842 -40 235.8800048828125 55" height="72.73931034482757" data-palette-color="#001f3f"><path d="M7.9 0L3.7 0 3.7-35 7.9-35 7.9 0ZM19.25 0L15.05 0 15.05-24.8 18.85-24.8 19.1-20.35Q20.3-22.7 22.55-24.05 24.8-25.4 27.65-25.4L27.65-25.4Q32.05-25.4 34.67-22.73 37.3-20.05 37.3-14.5L37.3-14.5 37.3 0 33.1 0 33.1-14.05Q33.1-21.8 26.7-21.8L26.7-21.8Q23.5-21.8 21.37-19.48 19.25-17.15 19.25-12.85L19.25-12.85 19.25 0ZM57.25 0L53.45 0Q50.05 0 48.1-1.65 46.15-3.3 46.15-7.6L46.15-7.6 46.15-21.25 41.85-21.25 41.85-24.8 46.15-24.8 46.7-30.75 50.35-30.75 50.35-24.8 57.65-24.8 57.65-21.25 50.35-21.25 50.35-7.6Q50.35-5.25 51.3-4.42 52.25-3.6 54.65-3.6L54.65-3.6 57.25-3.6 57.25 0ZM73.44 0.6L73.44 0.6Q69.89 0.6 67.14-1.03 64.39-2.65 62.82-5.55 61.24-8.45 61.24-12.4L61.24-12.4Q61.24-16.3 62.79-19.23 64.34-22.15 67.12-23.78 69.89-25.4 73.54-25.4L73.54-25.4Q77.14-25.4 79.77-23.78 82.39-22.15 83.79-19.5 85.19-16.85 85.19-13.8L85.19-13.8Q85.19-13.25 85.17-12.7 85.14-12.15 85.14-11.45L85.14-11.45 65.39-11.45Q65.54-8.6 66.72-6.73 67.89-4.85 69.67-3.9 71.44-2.95 73.44-2.95L73.44-2.95Q76.04-2.95 77.79-4.15 79.54-5.35 80.34-7.4L80.34-7.4 84.49-7.4Q83.49-3.95 80.67-1.68 77.84 0.6 73.44 0.6ZM73.44-21.85L73.44-21.85Q70.44-21.85 68.12-20.03 65.79-18.2 65.44-14.7L65.44-14.7 81.04-14.7Q80.89-18.05 78.74-19.95 76.59-21.85 73.44-21.85ZM94.94 0L90.74 0 90.74-24.8 94.54-24.8 94.89-20.05Q96.04-22.5 98.39-23.95 100.74-25.4 104.19-25.4L104.19-25.4 104.19-21 103.04-21Q100.84-21 98.99-20.23 97.14-19.45 96.04-17.6 94.94-15.75 94.94-12.5L94.94-12.5 94.94 0ZM119.09 0.6L119.09 0.6Q115.54 0.6 112.79-1.03 110.04-2.65 108.46-5.55 106.89-8.45 106.89-12.4L106.89-12.4Q106.89-16.3 108.44-19.23 109.99-22.15 112.76-23.78 115.54-25.4 119.19-25.4L119.19-25.4Q122.79-25.4 125.41-23.78 128.04-22.15 129.44-19.5 130.84-16.85 130.84-13.8L130.84-13.8Q130.84-13.25 130.81-12.7 130.79-12.15 130.79-11.45L130.79-11.45 111.04-11.45Q111.19-8.6 112.36-6.73 113.54-4.85 115.31-3.9 117.09-2.95 119.09-2.95L119.09-2.95Q121.69-2.95 123.44-4.15 125.19-5.35 125.99-7.4L125.99-7.4 130.14-7.4Q129.14-3.95 126.31-1.68 123.49 0.6 119.09 0.6ZM119.09-21.85L119.09-21.85Q116.09-21.85 113.76-20.03 111.44-18.2 111.09-14.7L111.09-14.7 126.69-14.7Q126.54-18.05 124.39-19.95 122.24-21.85 119.09-21.85ZM145.89 0.6L145.89 0.6Q141.44 0.6 138.49-1.65 135.54-3.9 135.04-7.75L135.04-7.75 139.34-7.75Q139.74-5.8 141.41-4.38 143.09-2.95 145.94-2.95L145.94-2.95Q148.59-2.95 149.84-4.08 151.09-5.2 151.09-6.75L151.09-6.75Q151.09-9 149.46-9.75 147.84-10.5 144.89-11.1L144.89-11.1Q142.89-11.5 140.89-12.25 138.89-13 137.54-14.38 136.19-15.75 136.19-18L136.19-18Q136.19-21.25 138.61-23.33 141.04-25.4 145.19-25.4L145.19-25.4Q149.14-25.4 151.66-23.43 154.19-21.45 154.59-17.8L154.59-17.8 150.44-17.8Q150.19-19.7 148.81-20.78 147.44-21.85 145.14-21.85L145.14-21.85Q142.89-21.85 141.66-20.9 140.44-19.95 140.44-18.4L140.44-18.4Q140.44-16.9 142.01-16.05 143.59-15.2 146.29-14.6L146.29-14.6Q148.59-14.1 150.66-13.38 152.74-12.65 154.06-11.23 155.39-9.8 155.39-7.1L155.39-7.1Q155.44-3.75 152.86-1.58 150.29 0.6 145.89 0.6ZM173.88 0L170.08 0Q166.68 0 164.73-1.65 162.78-3.3 162.78-7.6L162.78-7.6 162.78-21.25 158.48-21.25 158.48-24.8 162.78-24.8 163.33-30.75 166.98-30.75 166.98-24.8 174.28-24.8 174.28-21.25 166.98-21.25 166.98-7.6Q166.98-5.25 167.93-4.42 168.88-3.6 171.28-3.6L171.28-3.6 173.88-3.6 173.88 0ZM182.18-30.3L182.18-30.3Q180.93-30.3 180.11-31.13 179.28-31.95 179.28-33.2L179.28-33.2Q179.28-34.4 180.11-35.2 180.93-36 182.18-36L182.18-36Q183.38-36 184.23-35.2 185.08-34.4 185.08-33.2L185.08-33.2Q185.08-31.95 184.23-31.13 183.38-30.3 182.18-30.3ZM184.28 0L180.08 0 180.08-24.8 184.28-24.8 184.28 0ZM197.13 0L192.93 0 192.93-21.25 189.18-21.25 189.18-24.8 192.93-24.8 192.93-29.1Q192.93-32.7 194.73-34.35 196.53-36 199.98-36L199.98-36 202.48-36 202.48-32.4 200.63-32.4Q198.73-32.4 197.93-31.63 197.13-30.85 197.13-29L197.13-29 197.13-24.8 203.23-24.8 203.23-21.25 197.13-21.25 197.13 0ZM215.33 11L210.93 11 217.08-2.4 215.63-2.4 205.78-24.8 210.33-24.8 218.53-5.5 227.23-24.8 231.58-24.8 215.33 11Z" opacity="1" transform="matrix(1,0,0,1,0,0)" fill="black" class="wordmark-text-0" id="SvgjsPath1469" stroke-width="7" stroke="black" stroke-linejoin="round"></path></svg></g></svg></g></svg></g></svg></g></svg></g></svg></g></svg></g></mask><g transform="matrix(1,0,0,1,39.55199999999999,87.23034482758621)"><svg viewBox="0 0 316.416 72.73931034482757" height="72.73931034482757" width="316.416"><g><svg viewBox="0 0 316.416 72.73931034482757" height="72.73931034482757" width="316.416"><g><svg viewBox="0 0 316.416 72.73931034482757" height="72.73931034482757" width="316.416"><g><svg viewBox="0 0 316.416 72.73931034482757" height="72.73931034482757" width="316.416"><g id="textblocktransform"><svg viewBox="0 0 316.416 72.73931034482757" height="72.73931034482757" width="316.416" id="textblock"><g><svg viewBox="0 0 316.416 72.73931034482757" height="72.73931034482757" width="316.416"><g transform="matrix(1,0,0,1,0,0)"><svg width="316.416" viewBox="-0.2999999523162842 -40 235.8800048828125 55" height="72.73931034482757" data-palette-color="#001f3f"><path d="M7.9 0L3.7 0 3.7-35 7.9-35 7.9 0ZM19.25 0L15.05 0 15.05-24.8 18.85-24.8 19.1-20.35Q20.3-22.7 22.55-24.05 24.8-25.4 27.65-25.4L27.65-25.4Q32.05-25.4 34.67-22.73 37.3-20.05 37.3-14.5L37.3-14.5 37.3 0 33.1 0 33.1-14.05Q33.1-21.8 26.7-21.8L26.7-21.8Q23.5-21.8 21.37-19.48 19.25-17.15 19.25-12.85L19.25-12.85 19.25 0ZM57.25 0L53.45 0Q50.05 0 48.1-1.65 46.15-3.3 46.15-7.6L46.15-7.6 46.15-21.25 41.85-21.25 41.85-24.8 46.15-24.8 46.7-30.75 50.35-30.75 50.35-24.8 57.65-24.8 57.65-21.25 50.35-21.25 50.35-7.6Q50.35-5.25 51.3-4.42 52.25-3.6 54.65-3.6L54.65-3.6 57.25-3.6 57.25 0ZM73.44 0.6L73.44 0.6Q69.89 0.6 67.14-1.03 64.39-2.65 62.82-5.55 61.24-8.45 61.24-12.4L61.24-12.4Q61.24-16.3 62.79-19.23 64.34-22.15 67.12-23.78 69.89-25.4 73.54-25.4L73.54-25.4Q77.14-25.4 79.77-23.78 82.39-22.15 83.79-19.5 85.19-16.85 85.19-13.8L85.19-13.8Q85.19-13.25 85.17-12.7 85.14-12.15 85.14-11.45L85.14-11.45 65.39-11.45Q65.54-8.6 66.72-6.73 67.89-4.85 69.67-3.9 71.44-2.95 73.44-2.95L73.44-2.95Q76.04-2.95 77.79-4.15 79.54-5.35 80.34-7.4L80.34-7.4 84.49-7.4Q83.49-3.95 80.67-1.68 77.84 0.6 73.44 0.6ZM73.44-21.85L73.44-21.85Q70.44-21.85 68.12-20.03 65.79-18.2 65.44-14.7L65.44-14.7 81.04-14.7Q80.89-18.05 78.74-19.95 76.59-21.85 73.44-21.85ZM94.94 0L90.74 0 90.74-24.8 94.54-24.8 94.89-20.05Q96.04-22.5 98.39-23.95 100.74-25.4 104.19-25.4L104.19-25.4 104.19-21 103.04-21Q100.84-21 98.99-20.23 97.14-19.45 96.04-17.6 94.94-15.75 94.94-12.5L94.94-12.5 94.94 0ZM119.09 0.6L119.09 0.6Q115.54 0.6 112.79-1.03 110.04-2.65 108.46-5.55 106.89-8.45 106.89-12.4L106.89-12.4Q106.89-16.3 108.44-19.23 109.99-22.15 112.76-23.78 115.54-25.4 119.19-25.4L119.19-25.4Q122.79-25.4 125.41-23.78 128.04-22.15 129.44-19.5 130.84-16.85 130.84-13.8L130.84-13.8Q130.84-13.25 130.81-12.7 130.79-12.15 130.79-11.45L130.79-11.45 111.04-11.45Q111.19-8.6 112.36-6.73 113.54-4.85 115.31-3.9 117.09-2.95 119.09-2.95L119.09-2.95Q121.69-2.95 123.44-4.15 125.19-5.35 125.99-7.4L125.99-7.4 130.14-7.4Q129.14-3.95 126.31-1.68 123.49 0.6 119.09 0.6ZM119.09-21.85L119.09-21.85Q116.09-21.85 113.76-20.03 111.44-18.2 111.09-14.7L111.09-14.7 126.69-14.7Q126.54-18.05 124.39-19.95 122.24-21.85 119.09-21.85ZM145.89 0.6L145.89 0.6Q141.44 0.6 138.49-1.65 135.54-3.9 135.04-7.75L135.04-7.75 139.34-7.75Q139.74-5.8 141.41-4.38 143.09-2.95 145.94-2.95L145.94-2.95Q148.59-2.95 149.84-4.08 151.09-5.2 151.09-6.75L151.09-6.75Q151.09-9 149.46-9.75 147.84-10.5 144.89-11.1L144.89-11.1Q142.89-11.5 140.89-12.25 138.89-13 137.54-14.38 136.19-15.75 136.19-18L136.19-18Q136.19-21.25 138.61-23.33 141.04-25.4 145.19-25.4L145.19-25.4Q149.14-25.4 151.66-23.43 154.19-21.45 154.59-17.8L154.59-17.8 150.44-17.8Q150.19-19.7 148.81-20.78 147.44-21.85 145.14-21.85L145.14-21.85Q142.89-21.85 141.66-20.9 140.44-19.95 140.44-18.4L140.44-18.4Q140.44-16.9 142.01-16.05 143.59-15.2 146.29-14.6L146.29-14.6Q148.59-14.1 150.66-13.38 152.74-12.65 154.06-11.23 155.39-9.8 155.39-7.1L155.39-7.1Q155.44-3.75 152.86-1.58 150.29 0.6 145.89 0.6ZM173.88 0L170.08 0Q166.68 0 164.73-1.65 162.78-3.3 162.78-7.6L162.78-7.6 162.78-21.25 158.48-21.25 158.48-24.8 162.78-24.8 163.33-30.75 166.98-30.75 166.98-24.8 174.28-24.8 174.28-21.25 166.98-21.25 166.98-7.6Q166.98-5.25 167.93-4.42 168.88-3.6 171.28-3.6L171.28-3.6 173.88-3.6 173.88 0ZM182.18-30.3L182.18-30.3Q180.93-30.3 180.11-31.13 179.28-31.95 179.28-33.2L179.28-33.2Q179.28-34.4 180.11-35.2 180.93-36 182.18-36L182.18-36Q183.38-36 184.23-35.2 185.08-34.4 185.08-33.2L185.08-33.2Q185.08-31.95 184.23-31.13 183.38-30.3 182.18-30.3ZM184.28 0L180.08 0 180.08-24.8 184.28-24.8 184.28 0ZM197.13 0L192.93 0 192.93-21.25 189.18-21.25 189.18-24.8 192.93-24.8 192.93-29.1Q192.93-32.7 194.73-34.35 196.53-36 199.98-36L199.98-36 202.48-36 202.48-32.4 200.63-32.4Q198.73-32.4 197.93-31.63 197.13-30.85 197.13-29L197.13-29 197.13-24.8 203.23-24.8 203.23-21.25 197.13-21.25 197.13 0ZM215.33 11L210.93 11 217.08-2.4 215.63-2.4 205.78-24.8 210.33-24.8 218.53-5.5 227.23-24.8 231.58-24.8 215.33 11Z" opacity="1" transform="matrix(1,0,0,1,0,0)" fill="#000000" class="wordmark-text-0" data-fill-palette-color="primary" id="text-0"></path></svg></g></svg></g></svg></g></svg></g></svg></g></svg></g></svg></g><g mask="url(#cffc70a7-ee8e-4160-9ce4-b5c97b50d3d5)"><g transform="matrix(3.6894800839036503, 0, 0, 3.6894800839036503, 75.19648045493116, 1)"><svg xmlns="http://www.w3.org/2000/svg" xmlns:xlink="http://www.w3.org/1999/xlink" version="1.1" x="0" y="0" viewBox="1.2802700996398926 1.2703895568847656 66.439453125 66.459228515625" style="enable-background:new 0 0 69 69;" xml:space="preserve" height="66.459228515625" width="66.439453125" class="icon-none" data-fill-palette-color="accent" id="none"><g fill="#001f3f" data-fill-palette-color="accent"><path d="M66.72 65.729H52.333V54.07c0-1.4-0.29-2.73-0.81-3.95v-0.01l2.3-1.32c0.84 0.81 1.99 1.31 3.25 1.31 2.59 0 4.7-2.11 4.7-4.7 0-2.26-1.59-4.14-3.7-4.6V24.41c2.11-0.46 3.7-2.34 3.7-4.59 0-2.6-2.11-4.71-4.7-4.71-1.19 0-2.28 0.45-3.11 1.18 0 0-0.001 0.001-0.002 0.002L38.59 7.417c0.001-0.002 0.002-0.004 0.003-0.007 0.14-0.45 0.22-0.93 0.22-1.43 0-2.59-2.11-4.71-4.71-4.71-2.59 0-4.71 2.12-4.71 4.71 0 0.5 0.08 0.99 0.22 1.44 0 0 0 0 0 0.001l-15.368 8.872c-0.001-0.001-0.002-0.002-0.002-0.003-0.83-0.73-1.92-1.18-3.1-1.18-2.6 0-4.71 2.11-4.71 4.71 0 2.249 1.588 4.127 3.706 4.589v17.163c-2.118 0.462-3.706 2.34-3.706 4.598 0 2.6 2.11 4.71 4.71 4.71 1.507 0 2.854-0.717 3.704-1.823l2.474 1.428c-0.429 1.119-0.658 2.327-0.658 3.585V65.729H2.28c-0.552 0-1 0.447-1 1s0.448 1 1 1c18.735 0 6.753 0.002 64.44 0 0.553 0 1-0.447 1-1S67.272 65.729 66.72 65.729zM59.773 45.4c0 1.49-1.21 2.7-2.7 2.7-1.534 0-2.71-1.254-2.71-2.7 0-1.469 1.197-2.71 2.71-2.71C58.578 42.69 59.773 43.912 59.773 45.4zM54.363 19.79c0.02-1.49 1.23-2.68 2.71-2.68 1.49 0 2.7 1.21 2.7 2.71 0 1.49-1.21 2.7-2.7 2.7-1.492 0-2.71-1.215-2.71-2.7V19.79zM56.073 24.41v16.39c-0.9 0.19-1.7 0.64-2.32 1.26l-10-7.39c0.33-0.91 0.51-1.87 0.56-2.86 0.09-1.93-0.38-3.8-1.34-5.42l10.18-3.97C53.813 23.42 54.853 24.15 56.073 24.41zM37.58 9.143L52.771 17.914c-0.259 0.579-0.409 1.228-0.408 1.906 0 0.25 0.02 0.49 0.06 0.73L41.743 24.72c-1.73-1.89-4.08-3-6.64-3.16V10.58C36.081 10.371 36.94 9.862 37.58 9.143zM42.323 31.72c-0.229 4.433-3.968 7.662-8.18 7.46-4.253-0.183-7.653-3.788-7.46-8.17 0.183-4.126 3.57-7.47 7.81-7.47C40.298 24.574 42.486 27.868 42.323 31.72zM34.103 3.27c1.49 0 2.71 1.22 2.71 2.71 0 1.521-1.253 2.71-2.71 2.71-1.462 0-2.71-1.208-2.71-2.71C31.393 4.49 32.613 3.27 34.103 3.27zM15.433 17.917l15.188-8.769c0.001 0.001 0.001 0.002 0.002 0.002 0.65 0.71 1.51 1.22 2.48 1.43v11.06c-2.34 0.33-4.42 1.48-5.93 3.17l-11.34-4.7c0.01-0.09 0.01-0.19 0.01-0.29 0-0.68-0.15-1.32-0.41-1.9V17.917zM8.433 19.82c0-1.5 1.21-2.71 2.71-2.71 1.434 0 2.7 1.142 2.7 2.71 0 1.513-1.226 2.7-2.7 2.7C9.643 22.52 8.433 21.31 8.433 19.82zM11.143 48.88c-1.5 0-2.71-1.22-2.71-2.71s1.21-2.71 2.71-2.71c1.255 0 2.304 0.871 2.6 1.99C14.235 47.068 12.98 48.88 11.143 48.88zM14.193 42.6c-0.58-0.5-1.28-0.86-2.05-1.03-0.001 0-0.003 0-0.004 0V24.411c0.001 0 0.003 0 0.004-0.001 1.36-0.3 2.5-1.18 3.14-2.37l10.69 4.44c-0.76 1.31-1.22 2.82-1.29 4.44-0.05 1.17 0.1 2.32 0.44 3.4L14.193 42.6zM50.333 65.729H18.663V54.07c0-4.49 3.65-8.14 8.14-8.14h3.14l3.76 4.84c0.19 0.24 0.48 0.38 0.79 0.38s0.6-0.14 0.79-0.38l3.77-4.84h3.14c4.49 0 8.14 3.65 8.14 8.14V65.729zM50.573 48.36c-1.83-2.67-4.9-4.43-8.38-4.43h-3.63c-0.31 0-0.6 0.14-0.79 0.39l-3.28 4.21-3.27-4.21c-0.19-0.25-0.48-0.39-0.79-0.39h-3.63c-3.61 0-6.79 1.9-8.59 4.76l-2.5-1.443c0.234-0.914 0.165-2.027-0.31-3.047l10.54-7.99c1.65 2.888 4.645 4.811 8.11 4.97 0.15 0.01 0.31 0.01 0.46 0.01 3.514 0 6.627-1.857 8.37-4.69l9.79 7.24v0.01c-0.2 0.51-0.31 1.06-0.31 1.65 0 0.61 0.12 1.2 0.33 1.73L50.573 48.36z" fill="#000000" data-fill-palette-color="accent"></path></g></svg></g></g></svg></g><defs></defs></svg><rect width="395.52" height="247.2" fill="none" stroke="none" visibility="hidden"></rect></g></svg></g></svg>